<svg version="1.2" baseProfile="tiny-ps" xmlns="http://www.w3.org/2000/svg" viewBox="0 0 1500 931" width="1500" height="931">
	<title>Layer 1</title>
	<defs>
		<linearGradient id="grd1" gradientUnits="userSpaceOnUse"  x1="-6" y1="930.79" x2="-6" y2="0.21">
			<stop offset="0" stop-color="#0d3594"  />
			<stop offset="0.349" stop-color="#13669e"  />
			<stop offset="1" stop-color="#31b5d9"  />
		</linearGradient>
	</defs>
	<style>
		tspan { white-space:pre }
		.shp0 { fill: #e4e5e6 } 
		.shp1 { fill: #003399 } 
		.shp2 { fill: url(#grd1) } 
	</style>
	<g id="Layer 1">
		<g id="&lt;Group&gt;">
			<g id="&lt;Group&gt;">
				<g id="&lt;Group&gt;">
					<path id="&lt;Path&gt;" class="shp0" d="M770.56 605.18C764.28 606.76 758.66 609.6 752 611.2C724.77 617.77 704.02 624.22 692.21 595.82C684.2 576.55 657.33 577.49 649.74 595.88C642.15 614.27 660.53 633.88 679.8 625.88C708.2 614.07 720.02 629.23 734.7 653.1C738.28 658.93 740.28 664.91 743.61 670.46C762.51 701.95 808.49 697.26 821.97 664.6C835.44 631.95 806.18 596.18 770.56 605.18Z" />
				</g>
				<g id="&lt;Group&gt;">
					<path id="&lt;Path&gt;" class="shp0" d="M159.93 605.18C166.21 606.76 171.83 609.6 178.49 611.2C205.73 617.77 226.47 624.22 238.28 595.82C246.29 576.55 273.16 577.49 280.75 595.88C288.34 614.27 269.96 633.88 250.69 625.88C222.29 614.07 210.47 629.23 195.79 653.1C192.21 658.93 190.21 664.91 186.88 670.46C167.99 701.95 122 697.26 108.52 664.6C95.05 631.95 124.32 596.18 159.93 605.18Z" />
				</g>
				<g id="&lt;Group&gt;">
					<path id="&lt;Path&gt;" class="shp0" d="M774.77 318.97C768.98 317.51 763.79 314.89 757.64 313.42C732.5 307.35 713.35 301.4 702.45 327.61C695.06 345.4 670.25 344.53 663.25 327.55C656.25 310.58 673.21 292.47 691 299.86C717.21 310.76 728.13 296.77 741.67 274.74C744.98 269.36 746.82 263.84 749.9 258.71C767.34 229.64 809.78 233.98 822.23 264.12C834.66 294.26 807.65 327.27 774.77 318.97Z" />
				</g>
				<g id="&lt;Group&gt;">
					<path id="&lt;Path&gt;" class="shp0" d="M157.31 318.97C163.1 317.51 168.3 314.89 174.44 313.42C199.58 307.35 218.73 301.4 229.63 327.61C237.02 345.4 261.83 344.53 268.83 327.55C275.84 310.58 258.87 292.47 241.09 299.86C214.88 310.76 203.96 296.77 190.41 274.74C187.1 269.36 185.26 263.84 182.19 258.71C164.75 229.64 122.3 233.98 109.86 264.12C97.42 294.26 124.44 327.27 157.31 318.97Z" />
				</g>
				<g id="&lt;Group&gt;">
					<path id="&lt;Path&gt;" class="shp0" d="M646.35 693.83C636.53 703.64 636.53 719.56 646.35 729.37C656.16 739.19 672.08 739.19 681.9 729.37C691.72 719.56 691.72 703.64 681.9 693.83C672.08 684.01 656.16 684.01 646.35 693.83Z" />
				</g>
				<g id="&lt;Group&gt;">
					<path id="&lt;Path&gt;" class="shp0" d="M236.59 693.83C226.78 703.63 226.78 719.55 236.59 729.37C246.41 739.18 262.32 739.18 272.14 729.37C281.95 719.55 281.95 703.63 272.14 693.83C262.32 684 246.41 684 236.59 693.83Z" />
				</g>
				<g id="&lt;Group&gt;">
					<path id="&lt;Path&gt;" class="shp0" d="M854.54 499.97C845.59 499.97 838.33 507.22 838.33 516.17C838.33 525.13 845.59 532.38 854.54 532.38C863.49 532.38 870.75 525.13 870.75 516.17C870.75 507.22 863.49 499.97 854.54 499.97Z" />
				</g>
				<g id="&lt;Group&gt;">
					<path id="&lt;Path&gt;" class="shp0" d="M854 393.6C845.05 393.6 837.79 400.85 837.79 409.81C837.79 418.76 845.05 426.02 854 426.02C862.95 426.02 870.21 418.76 870.21 409.81C870.21 400.85 862.95 393.6 854 393.6Z" />
				</g>
				<g id="&lt;Group&gt;">
					<path id="&lt;Path&gt;" class="shp0" d="M597.73 645.2C591.39 651.53 591.39 661.8 597.73 668.12C604.06 674.46 614.32 674.46 620.65 668.12C626.98 661.8 626.98 651.53 620.65 645.2C614.32 638.87 604.06 638.87 597.73 645.2Z" />
				</g>
				<g id="&lt;Group&gt;">
					<path id="&lt;Path&gt;" class="shp0" d="M412.29 634.38C391.71 625.89 369.75 646.47 378.7 668.02C391.91 699.81 364.19 732.68 337.47 749.1C330.95 753.1 324.26 755.34 318.05 759.06C282.81 780.22 288.06 831.66 324.61 846.75C361.15 861.84 401.17 829.08 391.11 789.23C389.34 782.21 386.17 775.91 384.37 768.46C377.02 737.98 380.56 695.12 412.35 681.91C433.91 672.95 432.86 642.87 412.29 634.38Z" />
				</g>
				<g id="&lt;Group&gt;">
					<path id="&lt;Path&gt;" class="shp0" d="M611.93 761.86C605.71 758.13 599.01 755.93 592.48 751.93C565.72 735.57 537.92 702.77 551.06 670.94C559.97 649.37 537.97 628.84 517.41 637.38C496.85 645.93 495.87 676.01 517.45 684.91C549.26 698.06 552.91 740.89 545.63 771.4C543.85 778.85 540.69 785.16 538.93 792.18C528.97 832.06 569.06 864.73 605.57 849.56C642.09 834.39 647.22 782.92 611.93 761.86Z" />
				</g>
				<g id="&lt;Group&gt;">
					<g id="&lt;Group&gt;">
						<path id="&lt;Path&gt;" class="shp0" d="M465.2 767.41C451.33 767.41 440.07 778.67 440.07 792.55C440.07 806.43 451.33 817.68 465.2 817.68C479.09 817.68 490.35 806.43 490.35 792.55C490.35 778.67 479.09 767.41 465.2 767.41Z" />
					</g>
					<g id="&lt;Group&gt;">
						<path id="&lt;Path&gt;" class="shp0" d="M465.2 682.62C456.25 682.62 449 689.87 449 698.83C449 707.78 456.25 715.04 465.2 715.04C474.16 715.04 481.42 707.78 481.42 698.83C481.42 689.87 474.16 682.62 465.2 682.62Z" />
					</g>
					<g id="&lt;Group&gt;">
						<path id="&lt;Path&gt;" class="shp0" d="M465.2 597.83C456.25 597.83 449 605.08 449 614.04C449 622.99 456.25 630.25 465.2 630.25C474.16 630.25 481.42 622.99 481.42 614.04C481.42 605.08 474.16 597.83 465.2 597.83Z" />
					</g>
				</g>
				<g id="&lt;Group&gt;">
					<path id="&lt;Path&gt;" class="shp0" d="M297.84 645.2C291.51 651.53 291.51 661.79 297.84 668.12C304.17 674.45 314.43 674.45 320.76 668.12C327.09 661.79 327.09 651.53 320.76 645.2C314.43 638.87 304.17 638.87 297.84 645.2Z" />
				</g>
				<g id="&lt;Group&gt;">
					<path id="&lt;Path&gt;" class="shp0" d="M597.73 283.62C591.39 277.28 591.39 267.02 597.73 260.69C604.06 254.36 614.32 254.36 620.65 260.69C626.98 267.02 626.98 277.28 620.65 283.62C614.32 289.94 604.06 289.94 597.73 283.62Z" />
				</g>
				<g id="&lt;Group&gt;">
					<path id="&lt;Path&gt;" class="shp0" d="M412.29 294.44C391.71 302.93 369.75 282.35 378.7 260.8C391.91 229.01 364.19 196.14 337.47 179.72C330.95 175.72 324.26 173.48 318.05 169.76C282.81 148.6 288.06 97.15 324.61 82.07C361.15 66.98 401.17 99.74 391.11 139.59C389.34 146.61 386.17 152.9 384.37 160.36C377.02 190.84 380.56 233.7 412.35 246.91C433.91 255.86 432.86 285.94 412.29 294.44Z" />
				</g>
				<g id="&lt;Group&gt;">
					<path id="&lt;Path&gt;" class="shp0" d="M612.43 169.94C606.21 173.67 599.52 175.87 592.98 179.87C566.23 196.23 538.43 229.03 551.57 260.85C560.47 282.43 538.47 302.95 517.91 294.41C497.36 285.87 496.37 255.79 517.95 246.89C549.77 233.74 553.41 190.9 546.13 160.4C544.35 152.95 541.19 146.64 539.44 139.62C529.47 99.74 569.57 67.07 606.08 82.23C642.59 97.41 647.72 148.88 612.43 169.94Z" />
				</g>
				<g id="&lt;Group&gt;">
					<g id="&lt;Group&gt;">
						<path id="&lt;Path&gt;" class="shp0" d="M465.2 161.41C451.33 161.41 440.07 150.15 440.07 136.27C440.07 122.39 451.33 111.14 465.2 111.14C479.09 111.14 490.35 122.39 490.35 136.27C490.35 150.15 479.09 161.41 465.2 161.41Z" />
					</g>
					<g id="&lt;Group&gt;">
						<path id="&lt;Path&gt;" class="shp0" d="M465.2 246.2C456.25 246.2 449 238.95 449 229.99C449 221.04 456.25 213.78 465.2 213.78C474.16 213.78 481.42 221.04 481.42 229.99C481.42 238.95 474.16 246.2 465.2 246.2Z" />
					</g>
					<g id="&lt;Group&gt;">
						<path id="&lt;Path&gt;" class="shp0" d="M465.2 330.99C456.25 330.99 449 323.74 449 314.78C449 305.83 456.25 298.57 465.2 298.57C474.16 298.57 481.42 305.83 481.42 314.78C481.42 323.74 474.16 330.99 465.2 330.99Z" />
					</g>
				</g>
				<g id="&lt;Group&gt;">
					<path id="&lt;Path&gt;" class="shp0" d="M297.84 283.62C291.51 277.29 291.51 267.03 297.84 260.69C304.17 254.37 314.43 254.37 320.76 260.69C327.09 267.03 327.09 277.29 320.76 283.62C314.43 289.95 304.17 289.95 297.84 283.62Z" />
				</g>
				<g id="&lt;Group&gt;">
					<path id="&lt;Path&gt;" class="shp0" d="M76.6 393.6C67.65 393.6 60.39 400.85 60.39 409.81C60.39 418.76 67.65 426.02 76.6 426.02C85.55 426.02 92.81 418.76 92.81 409.81C92.81 400.85 85.55 393.6 76.6 393.6Z" />
				</g>
				<g id="&lt;Group&gt;">
					<path id="&lt;Path&gt;" class="shp0" d="M76.06 499.35C67.11 499.35 59.84 506.61 59.84 515.57C59.84 524.52 67.11 531.77 76.06 531.77C85.01 531.77 92.26 524.52 92.26 515.57C92.26 506.61 85.01 499.35 76.06 499.35Z" />
				</g>
				<g id="&lt;Group&gt;">
					<g id="&lt;Group&gt;">
						<path id="&lt;Compound Path&gt;" class="shp1" d="M313.28 366.25L313.28 556.28L294 556.28L294 404.26L219.35 532.12L209.85 532.12L135.19 405.07L135.19 556.28L115.92 556.28L115.92 366.25L132.48 366.25L215.01 507.14L296.72 366.25L313.28 366.25Z" />
					</g>
					<g id="&lt;Group&gt;">
						<path id="&lt;Compound Path&gt;" class="shp1" d="M510.92 538.91L510.92 556.28L376.54 556.28L376.54 366.25L506.84 366.25L506.84 383.63L396.63 383.63L396.63 451.22L494.9 451.22L494.9 468.32L396.63 468.32L396.63 538.91L510.92 538.91Z" />
					</g>
					<g id="&lt;Group&gt;">
						<path id="&lt;Compound Path&gt;" fill-rule="evenodd" class="shp1" d="M559.52 366.25L636.89 366.25C697.69 366.25 738.69 405.34 738.69 461.27C738.69 517.19 697.69 556.28 636.89 556.28L559.52 556.28L559.52 366.25ZM635.8 538.91C686.29 538.91 718.87 506.87 718.87 461.27C718.87 415.66 686.29 383.63 635.8 383.63L579.61 383.63L579.61 538.91L635.8 538.91Z" />
					</g>
					<g id="&lt;Group&gt;">
						<path id="&lt;Compound Path&gt;" class="shp1" d="M785.12 366.25L805.21 366.25L805.21 556.28L785.12 556.28L785.12 366.25Z" />
					</g>
				</g>
				<g id="&lt;Group&gt;">
					<path id="&lt;Compound Path&gt;" fill-rule="evenodd" class="shp2" d="M465.29 930.79C208.73 930.79 0 722.06 0 465.5C0 208.94 208.73 0.21 465.29 0.21C721.85 0.21 930.58 208.94 930.58 465.5C930.58 722.06 721.85 930.79 465.29 930.79ZM465.29 31.78C226.13 31.78 31.56 226.35 31.56 465.5C31.56 704.66 226.13 899.23 465.29 899.23C704.44 899.23 899.01 704.66 899.01 465.5C899.01 226.35 704.44 31.78 465.29 31.78Z" />
				</g>
				<g id="&lt;Group&gt;">
					<g id="&lt;Group&gt;">
						<path id="&lt;Compound Path&gt;" class="shp1" d="M977.13 461.27C977.13 405.61 1019.48 364.62 1076.76 364.62C1104.45 364.62 1129.42 373.85 1146.26 392.31L1133.5 405.07C1118.03 389.32 1099.02 382.54 1077.3 382.54C1031.42 382.54 996.95 416.2 996.95 461.27C996.95 506.33 1031.42 539.99 1077.3 539.99C1099.02 539.99 1118.03 533.2 1133.5 517.19L1146.26 529.95C1129.42 548.41 1104.45 557.91 1076.49 557.91C1019.48 557.91 977.13 516.92 977.13 461.27Z" />
					</g>
					<g id="&lt;Group&gt;">
						<path id="&lt;Compound Path&gt;" class="shp1" d="M1324.89 538.91L1324.89 556.28L1190.52 556.28L1190.52 366.25L1320.82 366.25L1320.82 383.63L1210.6 383.63L1210.6 451.22L1308.88 451.22L1308.88 468.32L1210.6 468.32L1210.6 538.91L1324.89 538.91Z" />
					</g>
					<g id="&lt;Group&gt;">
						<path id="&lt;Compound Path&gt;" class="shp1" d="M1373.5 366.25L1393.58 366.25L1393.58 538.91L1500 538.91L1500 556.28L1373.5 556.28L1373.5 366.25Z" />
					</g>
				</g>
			</g>
			<g id="&lt;Group&gt;">
			</g>
		</g>
	</g>
</svg>